<svg width="42" height="14" viewBox="0 0 42 14" fill="none" xmlns="http://www.w3.org/2000/svg">
<path d="M39.5669 11.0566C39.0028 10.1928 37.9799 9.62094 35.5995 10.4848H35.4848C35.2553 10.4848 34.9207 10.3388 34.9207 10.0468C34.8801 9.87564 34.8921 9.69128 34.9542 9.53093C35.0163 9.37058 35.1239 9.24621 35.2553 9.18294H35.37C35.2886 8.80397 35.1342 8.45686 34.9207 8.17308C34.806 7.85502 34.651 7.56316 34.4619 7.30921V7.17537C34.3441 6.90266 34.1924 6.65611 34.0125 6.44536L33.8978 6.31153C33.7783 6.08251 33.6259 5.88434 33.4485 5.7275L33.3338 5.5815C33.1997 5.40918 33.0448 5.26539 32.8749 5.15565L32.655 4.86365L32.3109 4.4378C32.1961 4.29179 32.0814 4.29181 31.9667 4.1458C31.852 3.9998 31.7468 3.99979 31.6321 3.85379L30.9533 3.42793H30.8099C27.8559 1.99223 23.8885 2.98994 18.7835 6.31153C18.7194 6.37567 18.6403 6.41054 18.5588 6.41054C18.4773 6.41054 18.3982 6.37567 18.3342 6.31153H18.2194C18.189 6.31153 18.1598 6.29613 18.1383 6.26875C18.1168 6.24137 18.1047 6.20423 18.1047 6.16551C18.0424 6.08676 18.0021 5.9842 17.99 5.87351C17.9483 5.69489 17.9477 5.50477 17.9884 5.32576C18.0291 5.14675 18.1092 4.98637 18.2194 4.86365C18.5181 4.76302 18.7914 4.56606 19.0129 4.2918C18.7284 3.83248 18.382 3.44112 17.99 3.13594L17.3112 2.71009H17.1965C16.9913 2.54656 16.7588 2.44655 16.5177 2.41807H16.47C16.2568 2.29804 16.0235 2.24786 15.7912 2.27207H15.4566C15.2272 2.27207 14.9977 2.12608 14.7683 2.12608H13.7549C13.4099 2.10156 13.0642 2.15091 12.732 2.27207C12.3878 2.27207 12.168 2.41807 11.8238 2.41807C9.5812 2.87985 7.46377 4.04322 5.66168 5.80371C3.85958 7.5642 2.42923 9.86672 1.49902 12.5045L9.89269 12.2125L39.6051 11.0566C39.5669 11.2027 39.6816 11.2027 39.5669 11.0566Z" fill="white"/>
</svg>
