<svg width="56" height="19" viewBox="0 0 56 19" fill="none" xmlns="http://www.w3.org/2000/svg">
<path d="M52.7261 14.7293C51.9773 13.5848 50.6237 12.8094 47.4653 13.9663H47.3213C47.0141 13.9663 46.5629 13.7694 46.5629 13.3879C46.5098 13.1576 46.5269 12.9102 46.6106 12.6954C46.6944 12.4807 46.8386 12.3147 47.0141 12.231H47.1677C47.0603 11.7242 46.8519 11.2619 46.5629 10.8896C46.4198 10.4617 46.2182 10.07 45.9677 9.73283V9.54822C45.805 9.18734 45.6012 8.85966 45.3629 8.57601L45.2093 8.3914C45.0653 8.0099 44.7581 7.81301 44.6141 7.6161L44.4605 7.4315C44.2908 7.18931 44.0852 6.99271 43.8557 6.85309L43.5581 6.47159L43.1069 5.89318C42.9629 5.69628 42.8093 5.69629 42.6557 5.49938C42.5021 5.30248 42.3581 5.31479 42.2045 5.11788L41.3021 4.53948H41.1581C37.2413 2.61966 31.9805 3.96106 25.2125 8.3914C25.1293 8.48162 25.0239 8.53113 24.9149 8.53113C24.806 8.53113 24.7005 8.48162 24.6173 8.3914H24.4637C24.423 8.3914 24.3839 8.37066 24.3551 8.33373C24.3263 8.29681 24.3101 8.24673 24.3101 8.19451C24.2303 8.09144 24.1797 7.95717 24.1661 7.81299C24.1041 7.57706 24.0993 7.32254 24.1524 7.08305C24.2055 6.84355 24.3141 6.63034 24.4637 6.47159C24.8595 6.32647 25.2218 6.06044 25.5197 5.69629C25.1418 5.08649 24.6837 4.56591 24.1661 4.15798L23.2637 3.57957H23.1101C22.8349 3.36886 22.5268 3.23858 22.2077 3.19805H22.0637C21.7797 3.04011 21.4701 2.97257 21.1613 3.00116H20.7197C20.4125 3.00116 20.1149 2.81655 19.8173 2.81655H18.4541C17.9982 2.78641 17.5414 2.84872 17.1005 3.00116C16.6493 3.00116 16.3421 3.19805 15.8909 3.19805C10.9373 4.35486 4.91814 8.3914 2.21094 16.6614L13.3373 16.2676L52.6973 14.7293C52.7261 14.9262 52.8797 14.9262 52.7261 14.7293Z" fill="white"/>
</svg>
