<svg width="86" height="34" viewBox="0 0 86 34" fill="none" xmlns="http://www.w3.org/2000/svg">
<path d="M80.4347 21.8696C78.7229 18.9143 76.208 16.727 73.3004 15.6648C73.0144 15.5192 72.7027 15.4569 72.3917 15.4833H72.2371C71.9374 15.3131 71.6377 14.9502 71.7827 14.5985C71.7827 14.4284 71.7827 14.4284 71.9374 14.2469C72.0921 14.0654 72.3917 13.8952 72.6914 13.8952H72.9911C73.0277 12.902 72.8196 11.9174 72.3917 11.0594C72.2371 10.8779 72.0921 10.5262 71.9374 10.3447L71.483 9.8116L71.3284 9.64145C71.1834 9.45995 71.0287 9.27846 70.874 9.27846C70.729 9.10831 70.729 9.10831 70.5743 9.10831C70.4197 9.10831 70.4197 8.92682 70.2747 8.92682C69.9653 8.75667 69.8203 8.57517 69.511 8.57517C68.4781 8.15282 67.3569 8.13099 66.3126 8.51289C65.2684 8.89479 64.3563 9.66022 63.7108 10.6964L63.5561 10.8779C63.5561 10.8779 63.5561 11.0594 63.4111 11.0594C63.2537 11.3938 63.0476 11.6933 62.8021 11.9442C62.6886 12.1373 62.5214 12.278 62.3291 12.3422C62.1368 12.4064 61.9314 12.39 61.7484 12.2958C61.5964 12.1911 61.4816 12.0259 61.4248 11.8301C61.368 11.6344 61.3731 11.4212 61.439 11.2295V11.0594C61.7484 10.5262 61.8934 10.1746 62.2027 9.64145C62.2027 9.45995 62.3477 9.45995 62.3477 9.27846C62.5024 8.92681 62.8021 8.75666 63.1018 8.39368C63.2564 8.22353 63.4111 8.04202 63.5561 8.04202C63.2813 6.45875 62.5391 5.04005 61.4604 4.03575C60.3818 3.03144 59.0357 2.50596 57.6592 2.55182H55.9868C52.0523 3.08496 47.5089 6.27246 46.0008 11.0594C46.6886 11.8994 47.3342 12.7857 47.9342 13.7137C48.032 13.9249 48.0553 14.1725 47.9993 14.4037C47.9433 14.6348 47.8123 14.831 47.6345 14.9502C47.4947 15.0375 47.3386 15.0833 47.1802 15.0833C47.0217 15.0833 46.8657 15.0375 46.7258 14.9502L46.5712 14.78L46.4262 14.5985C45.8997 13.6948 45.2903 12.8617 44.6088 12.1143L44.2994 11.5812C43.5339 10.8217 42.6645 10.2196 41.728 9.80025C40.1043 8.95397 38.3422 8.53579 36.5658 8.57517C31.8773 8.57517 27.3338 11.5925 24.1534 16.5155C24.6666 16.7219 25.17 16.9605 25.6614 17.2302C26.1869 17.5415 26.694 17.8939 27.1791 18.2851C27.4788 18.6481 27.6335 19.1699 27.3338 19.5329C27.3338 19.703 27.1791 19.703 27.1791 19.703C27.0393 19.7904 26.8833 19.8361 26.7248 19.8361C26.5663 19.8361 26.4103 19.7904 26.2704 19.703C24.6816 18.549 22.9111 17.7816 21.0645 17.4464C19.2178 17.1112 17.3325 17.2151 15.5207 17.752C14.3027 18.0465 13.1544 18.6505 12.1566 19.5215C11.8473 19.6917 11.5476 20.0547 11.2479 20.2248L10.7936 20.758L10.3392 21.2911C10.1845 21.4726 10.0299 21.8243 9.88485 21.9944C9.88485 22.1759 9.73019 22.1759 9.73019 22.3574C9.57552 22.709 9.43051 22.8905 9.27584 23.2422C9.27588 23.2655 9.27183 23.2886 9.26395 23.31C9.25607 23.3314 9.24452 23.3507 9.23001 23.3667C9.2155 23.3826 9.19835 23.3949 9.17962 23.4028C9.1609 23.4106 9.141 23.4139 9.12116 23.4123C8.95843 23.739 8.85631 24.1024 8.82149 24.4786V24.6601C8.69474 24.9948 8.64156 25.3614 8.66681 25.7264V27.0082C8.6419 27.4286 8.69467 27.8504 8.82149 28.2446H9.12116C9.43051 28.2446 9.73019 28.0745 10.1845 28.0745C10.3828 28.0439 10.5837 28.0982 10.7506 28.2273C10.9175 28.3565 11.0391 28.5519 11.0932 28.7778C11.0932 29.1294 10.9386 29.6625 10.6389 29.6625H10.4649C8.64296 29.8958 6.85896 30.4344 5.16736 31.262C4.71301 31.4435 4.41333 31.7951 3.95898 31.9653L18.1888 31.262L83.1414 28.2446C82.4263 26.0171 81.5194 23.8811 80.4347 21.8696Z" fill="white"/>
</svg>
