<svg width="61" height="145" viewBox="0 0 61 145" fill="none" xmlns="http://www.w3.org/2000/svg">
<path d="M22.5467 123.041C23.1938 119.886 31.6717 117.276 43.0614 116.46C43.1055 115.923 43.1643 115.357 43.2305 114.761C41.0761 114.717 38.9805 114.607 37.0394 114.475C35.8882 114.386 34.7549 114.139 33.6717 113.739C32.5583 113.356 31.6294 112.569 31.0688 111.534C30.4148 110.201 30.0514 108.745 30.0026 107.262C29.7305 102.975 27.7085 93.835 26.5541 85.2027C25.5246 84.0115 24.657 83.8277 23.3408 84.5262C23.2119 84.591 23.0626 84.6027 22.9251 84.5587C22.7877 84.5147 22.6729 84.4186 22.6055 84.2909C22.5722 84.2277 22.5516 84.1585 22.545 84.0873C22.5385 84.0161 22.546 83.9443 22.5671 83.876C22.5883 83.8077 22.6227 83.7443 22.6684 83.6893C22.7141 83.6343 22.7702 83.5889 22.8335 83.5556C23.3568 83.2127 23.9688 83.0301 24.5945 83.0301C25.2202 83.0301 25.8322 83.2127 26.3555 83.5556C25.2673 74.5336 25.3482 66.4968 29.7011 65.813L31.9438 65.438C30.7039 62.3731 29.0647 59.4854 27.0688 56.8497C22.7894 51.0189 13.657 60.5262 11.8629 59.9968C6.71582 58.3939 14.0688 55.2762 14.9879 54.8497C18.0467 53.4527 26.2526 48.8203 30.7452 54.5997C32.9996 57.6801 34.6603 61.1536 35.6423 64.8424L38.5246 64.3865C38.0908 61.0703 36.7379 54.1733 32.5908 48.9968C26.9952 42.0042 25.6644 34.2909 28.407 36.5997C29.3996 37.4306 30.2232 42.0997 34.8261 47.5924C38.6695 52.2783 41.3121 57.8309 42.5246 63.7688L47.9364 62.9233C51.268 62.3008 54.6937 62.391 57.9879 63.188C58.8898 57.8301 59.8335 52.4086 60.8188 46.9233C49.9952 38.835 41.2305 22.7468 33.7085 0.445328L29.782 2.20268C29.7379 35.2909 11.9585 57.1218 0.21582 68.1365L13.5614 137.063L22.4879 144.76C23.3041 140.518 22.4879 123.026 22.4879 123.026L22.5467 123.041Z" fill="url(#paint0_linear_498_71084)"/>
<defs>
<linearGradient id="paint0_linear_498_71084" x1="30.5246" y1="13.0115" x2="30.5246" y2="150.769" gradientUnits="userSpaceOnUse">
<stop stop-color="white" stop-opacity="0"/>
<stop offset="0.09" stop-color="#FDFEFE" stop-opacity="0.04"/>
<stop offset="0.23" stop-color="#F9FBFD" stop-opacity="0.14"/>
<stop offset="0.42" stop-color="#F2F6FB" stop-opacity="0.3"/>
<stop offset="0.63" stop-color="#E9EFF8" stop-opacity="0.53"/>
<stop offset="0.86" stop-color="#DDE6F4" stop-opacity="0.82"/>
<stop offset="1" stop-color="#D5E1F1"/>
</linearGradient>
</defs>
</svg>
