<svg width="24" height="24" viewBox="0 0 24 24" fill="none" xmlns="http://www.w3.org/2000/svg">
<g clip-path="url(#clip0_485_36170)">
<path d="M23.4805 4.89993C23.4805 3.76095 23.4805 3.19146 23.2553 2.75798C23.0655 2.3927 22.7677 2.09486 22.4024 1.9051C21.9689 1.67993 21.3995 1.67993 20.2605 1.67993H15.0905C14.521 1.67993 14.2362 1.67993 14.0195 1.79252C13.8369 1.88739 13.6879 2.03631 13.5931 2.21896C13.4805 2.4357 13.4805 2.72044 13.4805 3.28993V10.0699C13.4805 10.6394 13.4805 10.9242 13.5931 11.1409C13.6879 11.3235 13.8369 11.4725 14.0195 11.5673C14.2362 11.6799 14.521 11.6799 15.0905 11.6799H21.8705C22.44 11.6799 22.7247 11.6799 22.9414 11.5673C23.1241 11.4725 23.273 11.3235 23.3679 11.1409C23.4805 10.9242 23.4805 10.6394 23.4805 10.0699V4.89993Z" fill="#8A8A8E"/>
<path d="M11.4805 3.28993C11.4805 2.72044 11.4805 2.4357 11.3679 2.21896C11.273 2.03631 11.1241 1.88739 10.9414 1.79252C10.7247 1.67993 10.44 1.67993 9.87047 1.67993H4.70047C3.56149 1.67993 2.992 1.67993 2.55852 1.9051C2.19323 2.09486 1.89539 2.3927 1.70564 2.75798C1.48047 3.19146 1.48047 3.76095 1.48047 4.89993V15.0699C1.48047 15.6394 1.48047 15.9242 1.59306 16.1409C1.68793 16.3236 1.83685 16.4725 2.01949 16.5673C2.23623 16.6799 2.52098 16.6799 3.09047 16.6799H9.87047C10.44 16.6799 10.7247 16.6799 10.9414 16.5673C11.1241 16.4725 11.273 16.3236 11.3679 16.1409C11.4805 15.9242 11.4805 15.6394 11.4805 15.0699V3.28993Z" fill="#8A8A8E"/>
<path d="M11.4805 20.2899C11.4805 19.7204 11.4805 19.4357 11.3679 19.219C11.273 19.0363 11.1241 18.8874 10.9414 18.7925C10.7247 18.6799 10.44 18.6799 9.87047 18.6799H2.8138C2.50381 18.6799 2.34882 18.6799 2.22165 18.714C1.87656 18.8065 1.60701 19.076 1.51454 19.4211C1.48047 19.5483 1.48047 19.7033 1.48047 20.0133C1.48047 20.6332 1.48047 21.9432 1.54862 22.1976C1.73355 22.8878 2.27265 23.4268 2.96283 23.6118C3.21716 23.6799 3.52715 23.6799 4.14714 23.6799H9.87047C10.44 23.6799 10.7247 23.6799 10.9414 23.5673C11.1241 23.4725 11.273 23.3235 11.3679 23.1409C11.4805 22.9242 11.4805 22.6394 11.4805 22.0699V20.2899Z" fill="#8A8A8E"/>
<path d="M23.4805 15.2899C23.4805 14.7204 23.4805 14.4357 23.3679 14.219C23.273 14.0363 23.1241 13.8874 22.9414 13.7925C22.7247 13.6799 22.44 13.6799 21.8705 13.6799H15.0905C14.521 13.6799 14.2362 13.6799 14.0195 13.7925C13.8369 13.8874 13.6879 14.0363 13.5931 14.219C13.4805 14.4357 13.4805 14.7204 13.4805 15.2899V22.0699C13.4805 22.6394 13.4805 22.9242 13.5931 23.1409C13.6879 23.3235 13.8369 23.4725 14.0195 23.5673C14.2362 23.6799 14.521 23.6799 15.0905 23.6799H20.2605C21.3994 23.6799 21.9689 23.6799 22.4024 23.4548C22.7677 23.265 23.0655 22.9672 23.2553 22.6019C23.4805 22.1684 23.4805 21.5989 23.4805 20.4599V15.2899Z" fill="#8A8A8E"/>
</g>
<defs>
<clipPath id="clip0_485_36170">
<rect width="23.04" height="23.04" fill="white" transform="translate(0.480469 0.679932)"/>
</clipPath>
</defs>
</svg>
