<svg width="24" height="24" viewBox="0 0 24 24" fill="none" xmlns="http://www.w3.org/2000/svg">
<g clip-path="url(#clip0_485_36156)">
<path d="M1.48047 9.71315C1.48047 8.75019 1.94273 7.84576 2.72319 7.28169L11.309 1.07654C11.6586 0.823853 12.0695 0.679932 12.4805 0.679932C12.8914 0.679931 13.3024 0.823853 13.652 1.07654L22.2377 7.28169C23.0182 7.84576 23.4805 8.75019 23.4805 9.71315V21.6798C23.4805 22.7844 22.585 23.6798 21.4805 23.6798H15.4805C14.9282 23.6798 14.4805 23.2321 14.4805 22.6798V17.6798C14.4805 17.1276 14.0328 16.6798 13.4805 16.6798H11.4805C10.9282 16.6798 10.4805 17.1276 10.4805 17.6798V22.6798C10.4805 23.2321 10.0328 23.6798 9.48047 23.6798H3.48047C2.3759 23.6798 1.48047 22.7844 1.48047 21.6798V9.71315Z" fill="#333333"/>
</g>
<defs>
<clipPath id="clip0_485_36156">
<rect width="23.04" height="23.04" fill="white" transform="translate(0.480469 0.679932)"/>
</clipPath>
</defs>
</svg>
