<svg width="24" height="24" viewBox="0 0 24 24" fill="none" xmlns="http://www.w3.org/2000/svg">
<path fill-rule="evenodd" clip-rule="evenodd" d="M6.4 5.79993C6.4 4.44202 6.93943 3.13973 7.89961 2.17954C8.8598 1.21936 10.1621 0.679932 11.52 0.679932C12.8779 0.679932 14.1802 1.21936 15.1404 2.17954C16.1006 3.13973 16.64 4.44202 16.64 5.79993C16.64 7.15784 16.1006 8.46013 15.1404 9.42032C14.1802 10.3805 12.8779 10.9199 11.52 10.9199C10.1621 10.9199 8.8598 10.3805 7.89961 9.42032C6.93943 8.46013 6.4 7.15784 6.4 5.79993ZM6.4 13.4799C4.70261 13.4799 3.07475 14.1542 1.87452 15.3544C0.674284 16.5547 0 18.1825 0 19.8799C0 20.8984 0.40457 21.8751 1.12471 22.5952C1.84485 23.3154 2.82157 23.7199 3.84 23.7199H19.2C20.2184 23.7199 21.1952 23.3154 21.9153 22.5952C22.6354 21.8751 23.04 20.8984 23.04 19.8799C23.04 18.1825 22.3657 16.5547 21.1655 15.3544C19.9653 14.1542 18.3374 13.4799 16.64 13.4799H6.4Z" fill="#8A8A8E"/>
</svg>
