<svg width="103" height="97" viewBox="0 0 103 97" fill="none" xmlns="http://www.w3.org/2000/svg">
<path d="M89.7775 56.0637H2.6516V3.03421H89.7775V56.0637ZM0.716797 57.8293H91.7123V0.827271H0.716797V57.8293Z" fill="#918F8F"/>
<path d="M52.635 57.265H42.5428V74.5422H52.635V57.265ZM66.6598 74.5422H28.0732V77.5157H66.6598V74.5422Z" fill="#918F8F"/>
<path d="M2.65234 56.0637H89.7782V3.03418H2.65234V56.0637Z" fill="#4B6EBF"/>
<path d="M65.8931 37.4923C65.8931 37.4923 64.861 42.8188 60.1319 45.9882C55.406 49.1542 44.9189 49.1542 44.9189 49.1542L48.7122 42.7724L65.8931 37.4923Z" fill="#40B93C"/>
<path d="M49.7178 39.8917L51.9745 38.6903L72.1787 29.524L74.004 32.2587L54.4237 43.154L49.7178 39.8917Z" fill="#A17B3F"/>
<path d="M14.7586 17.0591L13.2585 20.4641L11.8779 42.7326C16.3416 44.3388 22.0896 44.1364 28.2424 43.3565L42.1611 38.4149L39.5924 17.9286L14.7586 17.0591Z" fill="#FBC718"/>
<mask id="mask0_485_35506" style="mask-type:luminance" maskUnits="userSpaceOnUse" x="18" y="32" width="34" height="25">
<path d="M18.6885 32.6437H51.8224V56.0638H18.6885V32.6437Z" fill="white"/>
</mask>
<g mask="url(#mask0_485_35506)">
<path d="M35.2353 33.1249C35.2353 33.1249 42.6692 38.7368 46.8872 39.7955C51.1053 40.8541 52.4095 54.2418 51.3111 58.1114L18.957 56.9764L26.6896 35.5774L35.2353 33.1249Z" fill="#40B93C"/>
</g>
<mask id="mask1_485_35506" style="mask-type:luminance" maskUnits="userSpaceOnUse" x="25" y="38" width="31" height="19">
<path d="M25.4854 38.5907H55.2209V56.0637H25.4854V38.5907Z" fill="white"/>
</mask>
<g mask="url(#mask1_485_35506)">
<path d="M25.8663 41.5245L51.9745 38.6903L54.4204 43.154L35.225 65.0408C30.1109 56.9166 25.7568 48.902 25.8663 41.5245Z" fill="#F7941D"/>
</g>
<path d="M72.7201 30.8914L40.542 45.7226M72.9358 31.3261L40.6681 47.1995M72.9358 31.8637L41.6405 48.278" stroke="#231F20" stroke-width="0.64" stroke-miterlimit="10" stroke-linecap="round" stroke-linejoin="round"/>
<path d="M40.6679 23.1655C40.6679 30.4799 35.2086 35.9192 27.8942 35.9192C22.3785 35.9192 18.4193 31.1071 16.292 26.451C15.5984 24.931 15.5752 22.6179 15.5752 20.8158C15.5752 13.5014 20.1085 9.92053 27.423 9.92053C34.7374 9.92053 40.6679 15.8477 40.6679 23.1655Z" fill="#EFCDC1"/>
<path d="M19.8027 25.92L19.7762 25.8868C19.6667 25.7574 19.6634 25.5649 19.7729 25.4321L21.6081 23.1854C21.7044 23.0725 21.857 23.0261 21.9964 23.0725L23.0617 23.4144C23.3538 23.5073 23.4035 23.9055 23.1414 24.0615C22.2022 24.6191 21.253 25.2629 20.2939 25.9764C20.1413 26.0892 19.9222 26.066 19.8027 25.92ZM30.6449 19.3291L31.5875 19.8202C31.6439 19.8501 31.7069 19.8501 31.7634 19.8235L33.5588 18.9607C33.6683 18.9076 33.7015 18.7649 33.6285 18.6686L33.426 18.4065C33.3829 18.3534 33.3099 18.3235 33.2402 18.3334C32.2943 18.4795 31.4049 18.6686 30.6649 18.974C30.5122 19.0403 30.4989 19.2527 30.6449 19.3291Z" fill="#231F20"/>
<path d="M26.5703 22.7075C26.5703 22.7075 26.7761 21.2274 27.9808 20.8689C29.1888 20.5072 29.2153 22.15 29.2153 22.15" stroke="#F15123" stroke-width="1.28" stroke-miterlimit="10" stroke-linecap="round" stroke-linejoin="round"/>
<path d="M29.2152 10.0399C29.2152 10.0399 29.8757 15.1939 26.8523 18.3334C23.829 21.4728 14.4437 25.817 14.4437 25.817C14.4437 25.817 11.7755 21.4264 14.4437 16.2426C17.1086 11.0588 29.2152 10.0399 29.2152 10.0399Z" fill="#FBC718"/>
<path d="M29.2157 10.04C31.7844 15.924 35.2358 18.8909 39.7592 18.3334C39.7592 18.3334 38.6375 14.7724 36.7027 12.7381C34.7679 10.7037 32.3485 8.27441 28.1371 8.27441C17.0858 8.27773 14.0625 17.059 14.0625 17.059L29.2157 10.04Z" fill="#FBC718"/>
<path d="M39.5931 18.7847C39.5931 18.7847 40.1208 15.2569 41.4914 15.7249C42.8587 16.1928 43.6851 18.9905 43.6851 21.2339C43.6851 23.474 42.8288 25.0106 42.2348 25.0106C41.6407 25.0106 40.6186 24.3336 40.6186 24.3336L39.5931 18.7847ZM17.5503 28.3393C17.5503 28.3393 14.7294 26.1556 14.0623 27.4366C13.3986 28.7209 14.7327 31.3161 16.2825 32.9357C17.8324 34.5552 19.5149 35.0729 19.9464 34.6614C20.3745 34.2532 20.6433 33.0551 20.6433 33.0551L17.5503 28.3393Z" fill="#EFCDC1"/>
<path d="M25.04 29.3315C25.04 29.3315 29.059 25.9066 30.871 25.2296C32.683 24.5526 37.1334 24.1112 37.1334 24.1112C37.1334 24.1112 38.6334 26.9686 34.2893 30.2077C27.8941 33.9279 25.04 29.3315 25.04 29.3315Z" fill="#231F20"/>
<path d="M27.5957 29.3217C27.3434 29.2885 27.2372 28.9831 27.4164 28.8039C28.1001 28.117 29.5636 26.7928 31.3392 26.0494C33.3204 25.2197 34.545 25.2463 34.9532 25.2894C35.0495 25.2994 35.1324 25.3558 35.1822 25.4355L35.4012 25.8005C35.5041 25.9764 35.4145 26.2021 35.2154 26.2585C34.3127 26.5041 32.0925 27.1413 31.0902 27.7353L28.359 29.3615C28.3025 29.3947 28.2295 29.4113 28.1632 29.4013L27.5957 29.3217Z" fill="white"/>
<mask id="mask2_485_35506" style="mask-type:luminance" maskUnits="userSpaceOnUse" x="30" y="45" width="15" height="12">
<path d="M30.583 45.3875H44.1764V56.0637H30.583V45.3875Z" fill="white"/>
</mask>
<g mask="url(#mask2_485_35506)">
<path d="M31.1934 51.3611C31.1934 51.3611 35.9225 47.163 37.3861 46.5158C38.8496 45.8653 42.759 45.9848 42.759 45.9848L43.0478 47.0435C43.0478 47.0435 43.6949 48.2415 43.5754 49.3931C43.456 50.5447 41.1229 53.0902 41.1229 53.0902L32.7299 55.8712L31.1934 51.3611Z" fill="#EFCDC1"/>
</g>
<path d="M77.5062 24.8945L72.1797 29.5241L73.7826 32.3815L80.1944 31.7808L77.5062 24.8945Z" fill="#A17B3F"/>
<path d="M63.0519 41.1794C61.6049 41.4117 57.4632 39.4437 57.055 37.9702C56.6501 36.5 56.6999 33.3074 59.1823 32.8262C61.668 32.3483 63.022 32.584 64.7975 33.3174C66.573 34.0508 66.8551 36.7556 66.8551 36.7556C66.8551 36.7556 64.4988 40.9471 63.0519 41.1794Z" fill="#EFCDC1"/>
<path d="M40.5413 18.9042C40.5413 18.9042 40.4318 17.7394 41.6398 17.3809C42.8445 17.0192 41.8688 23.4409 41.8688 23.4409M17.2042 29.3183C17.2042 29.3183 16.7628 28.2331 15.5283 28.4687C14.2937 28.7077 17.5527 32.4644 17.5527 32.4644" stroke="#F15123" stroke-width="1.28" stroke-miterlimit="10" stroke-linecap="round" stroke-linejoin="round"/>
<path d="M48.4421 44.3719C48.4421 45.7525 47.3204 46.8742 45.9398 46.8742C44.5559 46.8742 43.4375 45.7525 43.4375 44.3719C43.4375 42.9914 44.5559 41.8696 45.9398 41.8696C47.3204 41.8696 48.4421 42.9914 48.4421 44.3719Z" fill="#231F20"/>
<path d="M67.3748 22.4718C67.7233 23.4939 67.0429 24.6521 65.8548 25.057C64.6634 25.4619 63.4189 24.9608 63.0704 23.9386C62.722 22.9131 63.4056 21.7582 64.5937 21.3533C65.7818 20.9485 67.0263 21.4496 67.3748 22.4718Z" fill="white"/>
<path d="M66.4574 22.3989L64.9407 12.7945C64.9407 12.7945 67.2837 13.7304 69.036 12.5689C70.7883 11.4073 72.0062 10.3951 73.3171 10.7237C71.2794 11.7292 70.8181 13.5313 69.1289 14.351C67.4397 15.1674 65.8633 14.1054 65.8633 14.1054L67.4231 22.6511L66.4574 22.3989ZM50.8229 17.069C51.1249 17.839 50.5243 18.7981 49.4789 19.2096C48.4335 19.6211 47.3416 19.3324 47.0363 18.5624C46.731 17.7958 47.335 16.8367 48.3771 16.4252C49.4258 16.0104 50.5176 16.2991 50.8229 17.069ZM56.2291 14.3112C56.5344 15.0811 55.9337 16.0402 54.8884 16.4517C53.843 16.8633 52.7478 16.5745 52.4458 15.8046C52.1405 15.038 52.7412 14.0789 53.7865 13.6674C54.8319 13.2525 55.9271 13.5412 56.2291 14.3112Z" fill="white"/>
<path d="M49.9047 16.9331L46.6191 10.6806L51.7631 7.47144L56.2301 14.3113L55.5431 14.308L51.5939 8.60643L47.8935 11.0955L50.7111 16.86L49.9047 16.9331Z" fill="white"/>
<mask id="mask3_485_35506" style="mask-type:luminance" maskUnits="userSpaceOnUse" x="9" y="35" width="26" height="22">
<path d="M9.34277 35.1924H34.8304V56.0637H9.34277V35.1924Z" fill="white"/>
</mask>
<g mask="url(#mask3_485_35506)">
<path d="M26.5732 35.8263C25.843 38.3784 18.4755 42.9615 18.4755 42.9615C18.4755 42.9615 11.0383 52.1278 10.2684 56.233C9.50175 60.3349 9.64446 65.5685 15.5949 64.5098C21.5486 63.4545 34.1232 55.9443 34.1232 55.9443C32.8057 54.3148 32.2481 52.3767 32.9451 49.9208C29.3974 51.2417 25.8397 52.3302 22.1958 51.4109C21.0873 51.162 27.9305 38.9691 26.5732 35.8263Z" fill="#40B93C"/>
</g>
<path d="M74.6351 66.0132C74.6351 66.0132 62.3227 60.2088 61.1745 60.0163C60.6667 52.745 76.8022 45.3443 91.0262 53.1267C105.25 60.909 101.805 76.6629 101.805 76.6629C101.805 76.6629 99.8938 90.8238 82.6066 93.3128C65.3228 95.7985 56.8369 77.4926 56.8369 77.4926C56.8369 77.4926 57.0294 73.2845 60.3448 72.0698C70.4867 72.5178 74.6351 66.0132 74.6351 66.0132Z" fill="#A17B3F"/>
<path d="M77.5779 54.9653C77.266 55.6788 78.3777 55.8547 79.3634 56.2828C80.3457 56.7142 80.8336 57.2353 81.1455 56.5218C81.4575 55.8082 80.9099 54.879 79.9276 54.4509C78.9419 54.0195 77.8899 54.2518 77.5779 54.9653ZM94.7721 55.6689C95.4657 52.9409 95.771 49.579 95.5221 45.3145C92.5353 48.537 90.3715 51.5371 90.0065 54.0526L90.9291 54.0195C92.1669 52.463 93.3816 50.5083 94.5664 47.8334C94.7754 48.8556 94.7854 52.1112 94.7721 55.6689ZM89.1436 52.4895C90.4412 49.0348 91.1215 45.6132 90.7731 42.2513C90.7731 42.2513 87.1026 45.2481 86.2431 47.0369C85.3802 48.8224 84.7762 51.3413 84.7762 51.3413L86.3393 51.2782L88.7951 45.8853L90.0065 44.2592L88.7951 52.4895H89.1436Z" fill="#231F20"/>
<path d="M76.9777 82.6599C80.5686 92.5363 83.9304 95.0087 87.2325 95.48M64.1742 86.2009C64.1742 86.2009 54.8918 89.0683 51.9248 89.0683C48.9612 89.0683 46.376 83.9044 46.376 83.9044M59.2824 81.5912C59.2824 81.5912 53.9658 81.8634 52.1804 81.3822C50.3949 80.9043 49.3761 77.4628 49.3761 77.4628" stroke="#231F20" stroke-width="2.56" stroke-miterlimit="10" stroke-linecap="round" stroke-linejoin="round"/>
<path d="M32.5877 50.1631C29.2258 51.6167 25.6018 52.078 21.6426 51.2649M41.442 47.329L42.8325 47.1863M41.9464 48.985L43.3137 48.746M41.9464 50.9132L43.1677 50.3523M58.7424 33.2676L63.1098 34.1338M57.3983 34.7079L62.0047 35.5243M57.3983 36.5332L61.3343 37.781M16.0771 25.2529C19.6813 32.8528 24.3573 37.0841 30.8553 35.6073M25.8209 9.29663C25.7047 13.9096 23.365 18.2405 17.398 22.1101M23.0829 10.5212C23.1493 14.3809 20.803 16.704 17.7564 18.5824" stroke="#F15123" stroke-width="1.28" stroke-miterlimit="10" stroke-linecap="round" stroke-linejoin="round"/>
</svg>
